<mxfile host="app.diagrams.net" modified="2023-11-02T21:41:04.191Z" agent="Mozilla/5.0 (Windows NT 10.0; Win64; x64) AppleWebKit/537.36 (KHTML, like Gecko) Chrome/118.0.0.0 Safari/537.36" version="22.0.8" etag="zFIgGBHkmK8GiI-Q9jZo" type="github">
  <diagram name="Page-1" id="fgM14XXwMlTn7d4MxuTH">
    <mxGraphModel>
      <root>
        <mxCell id="0" />
        <mxCell id="1" parent="0" />
      </root>
    </mxGraphModel>
  </diagram>
</mxfile>
